<svg xmlns="http://www.w3.org/2000/svg" xmlns:xlink="http://www.w3.org/1999/xlink" width="72" zoomAndPan="magnify" viewBox="0 0 54 95.249998" height="127" preserveAspectRatio="xMidYMid meet" version="1.0"><defs><clipPath id="4e13c8730a"><path d="M 0.566406 0 L 51.039062 0 L 51.039062 93.761719 L 0.566406 93.761719 Z M 0.566406 0 " clip-rule="nonzero"/></clipPath><clipPath id="1aa7b22f28"><path d="M 2.351562 0 L 52.824219 0 L 52.824219 93.761719 L 2.351562 93.761719 Z M 2.351562 0 " clip-rule="nonzero"/></clipPath></defs><g clip-path="url(#4e13c8730a)"><path fill="#f8f3f8" d="M 8.519531 1.316406 C 6.652344 -0.484375 3.679688 -0.433594 1.882812 1.433594 C 0.125 3.246094 0.125 6.136719 1.882812 7.953125 L 40.824219 46.890625 L 1.882812 85.832031 C 0.0859375 87.699219 0.132812 90.671875 2 92.460938 C 3.816406 94.21875 6.695312 94.226562 8.519531 92.46875 L 48.882812 52.105469 C 51.765625 49.222656 51.765625 44.5625 48.882812 41.679688 L 8.519531 1.316406 " fill-opacity="1" fill-rule="nonzero"/></g><g clip-path="url(#1aa7b22f28)"><path fill="#f8f3f8" d="M 10.304688 1.316406 C 8.441406 -0.484375 5.46875 -0.433594 3.667969 1.433594 C 1.910156 3.246094 1.910156 6.136719 3.667969 7.953125 L 42.609375 46.890625 L 3.667969 85.832031 C 1.871094 87.699219 1.921875 90.671875 3.785156 92.460938 C 5.601562 94.21875 8.480469 94.226562 10.304688 92.46875 L 50.667969 52.105469 C 53.550781 49.222656 53.550781 44.5625 50.667969 41.679688 L 10.304688 1.316406 " fill-opacity="1" fill-rule="nonzero"/></g></svg>