<svg xmlns="http://www.w3.org/2000/svg" xmlns:xlink="http://www.w3.org/1999/xlink" width="50" zoomAndPan="magnify" viewBox="0 0 37.5 38.249999" height="51" preserveAspectRatio="xMidYMid meet" version="1.0"><defs><clipPath id="3d0fcdfc03"><path d="M 0.117188 0 L 36.894531 0 L 36.894531 36.777344 L 0.117188 36.777344 Z M 0.117188 0 " clip-rule="nonzero"/></clipPath><clipPath id="5ad8b32a65"><path d="M 0.117188 0.308594 L 36.894531 0.308594 L 36.894531 37 L 0.117188 37 Z M 0.117188 0.308594 " clip-rule="nonzero"/></clipPath></defs><g clip-path="url(#3d0fcdfc03)"><path fill="#f8f3f8" d="M 26.472656 36.527344 L 10.285156 36.527344 C 4.699219 36.527344 0.117188 31.941406 0.117188 26.355469 L 0.117188 10.171875 C 0.117188 4.582031 4.699219 0 10.285156 0 L 26.472656 0 C 32.058594 0 36.640625 4.582031 36.640625 10.171875 L 36.640625 26.355469 C 36.640625 31.941406 32.058594 36.527344 26.472656 36.527344 Z M 10.285156 2.292969 C 5.988281 2.292969 2.40625 5.871094 2.40625 10.171875 L 2.40625 26.355469 C 2.40625 30.652344 5.988281 34.234375 10.285156 34.234375 L 26.472656 34.234375 C 30.769531 34.234375 34.347656 30.652344 34.347656 26.355469 L 34.347656 10.171875 C 34.347656 5.871094 30.769531 2.292969 26.472656 2.292969 Z M 10.285156 2.292969 " fill-opacity="1" fill-rule="evenodd"/></g><path fill="#f8f3f8" d="M 18.378906 24.566406 C 14.941406 24.566406 12.074219 21.699219 12.074219 18.261719 C 12.074219 14.824219 14.941406 11.960938 18.378906 11.960938 C 21.816406 11.960938 24.679688 14.824219 24.679688 18.261719 C 24.679688 21.699219 21.816406 24.566406 18.378906 24.566406 Z M 18.378906 14.253906 C 16.15625 14.253906 14.367188 16.042969 14.367188 18.261719 C 14.367188 20.484375 16.15625 22.273438 18.378906 22.273438 C 20.597656 22.273438 22.390625 20.484375 22.390625 18.261719 C 22.390625 16.042969 20.597656 14.253906 18.378906 14.253906 Z M 18.378906 14.253906 " fill-opacity="1" fill-rule="evenodd"/><path fill="#f8f3f8" d="M 18.378906 28.578125 C 12.71875 28.578125 8.066406 23.921875 8.066406 18.261719 C 8.066406 12.605469 12.71875 7.949219 18.378906 7.949219 C 24.035156 7.949219 28.691406 12.605469 28.691406 18.261719 C 28.691406 23.921875 24.035156 28.578125 18.378906 28.578125 Z M 18.378906 10.242188 C 13.9375 10.242188 10.355469 13.824219 10.355469 18.261719 C 10.355469 22.703125 13.9375 26.285156 18.378906 26.285156 C 22.820312 26.285156 26.398438 22.703125 26.398438 18.261719 C 26.398438 13.824219 22.820312 10.242188 18.378906 10.242188 Z M 18.378906 10.242188 " fill-opacity="1" fill-rule="evenodd"/><path fill="#f8f3f8" d="M 9.925781 8.449219 L 7.421875 8.449219 C 6.777344 8.449219 6.273438 7.949219 6.273438 7.304688 C 6.273438 6.660156 6.777344 6.160156 7.421875 6.160156 L 9.925781 6.160156 C 10.570312 6.160156 11.074219 6.660156 11.074219 7.304688 C 11.074219 7.949219 10.570312 8.449219 9.925781 8.449219 Z M 9.925781 8.449219 " fill-opacity="1" fill-rule="evenodd"/><g clip-path="url(#5ad8b32a65)"><path fill="#f8f3f8" d="M 26.472656 36.832031 L 10.285156 36.832031 C 4.699219 36.832031 0.117188 32.25 0.117188 26.664062 L 0.117188 10.476562 C 0.117188 4.890625 4.699219 0.308594 10.285156 0.308594 L 26.472656 0.308594 C 32.058594 0.308594 36.640625 4.890625 36.640625 10.476562 L 36.640625 26.664062 C 36.640625 32.25 32.058594 36.832031 26.472656 36.832031 Z M 10.285156 2.597656 C 5.988281 2.597656 2.40625 6.179688 2.40625 10.476562 L 2.40625 26.664062 C 2.40625 30.960938 5.988281 34.542969 10.285156 34.542969 L 26.472656 34.542969 C 30.769531 34.542969 34.347656 30.960938 34.347656 26.664062 L 34.347656 10.476562 C 34.347656 6.179688 30.769531 2.597656 26.472656 2.597656 Z M 10.285156 2.597656 " fill-opacity="1" fill-rule="evenodd"/></g><path fill="#f8f3f8" d="M 18.378906 24.871094 C 14.941406 24.871094 12.074219 22.007812 12.074219 18.570312 C 12.074219 15.132812 14.941406 12.269531 18.378906 12.269531 C 21.816406 12.269531 24.679688 15.132812 24.679688 18.570312 C 24.679688 22.007812 21.816406 24.871094 18.378906 24.871094 Z M 18.378906 14.558594 C 16.15625 14.558594 14.367188 16.351562 14.367188 18.570312 C 14.367188 20.789062 16.15625 22.582031 18.378906 22.582031 C 20.597656 22.582031 22.390625 20.789062 22.390625 18.570312 C 22.390625 16.351562 20.597656 14.558594 18.378906 14.558594 Z M 18.378906 14.558594 " fill-opacity="1" fill-rule="evenodd"/><path fill="#f8f3f8" d="M 18.378906 28.882812 C 12.71875 28.882812 8.066406 24.226562 8.066406 18.570312 C 8.066406 12.914062 12.71875 8.257812 18.378906 8.257812 C 24.035156 8.257812 28.691406 12.914062 28.691406 18.570312 C 28.691406 24.226562 24.035156 28.882812 18.378906 28.882812 Z M 18.378906 10.546875 C 13.9375 10.546875 10.355469 14.128906 10.355469 18.570312 C 10.355469 23.011719 13.9375 26.589844 18.378906 26.589844 C 22.820312 26.589844 26.398438 23.011719 26.398438 18.570312 C 26.398438 14.128906 22.820312 10.546875 18.378906 10.546875 Z M 18.378906 10.546875 " fill-opacity="1" fill-rule="evenodd"/><path fill="#f8f3f8" d="M 9.925781 8.757812 L 7.421875 8.757812 C 6.777344 8.757812 6.273438 8.257812 6.273438 7.613281 C 6.273438 6.96875 6.777344 6.464844 7.421875 6.464844 L 9.925781 6.464844 C 10.570312 6.464844 11.074219 6.96875 11.074219 7.613281 C 11.074219 8.257812 10.570312 8.757812 9.925781 8.757812 Z M 9.925781 8.757812 " fill-opacity="1" fill-rule="evenodd"/></svg>