<svg xmlns="http://www.w3.org/2000/svg" xmlns:xlink="http://www.w3.org/1999/xlink" width="104" zoomAndPan="magnify" viewBox="0 0 78 75.749997" height="101" preserveAspectRatio="xMidYMid meet" version="1.0"><defs><clipPath id="8757073d99"><path d="M 3 1 L 73 1 L 73 69 L 3 69 Z M 3 1 " clip-rule="nonzero"/></clipPath><clipPath id="65eaf63660"><path d="M 0.128906 2.339844 L 75.59375 -0.00390625 L 77.867188 73.21875 L 2.402344 75.5625 Z M 0.128906 2.339844 " clip-rule="nonzero"/></clipPath><clipPath id="91111d2653"><path d="M 75.453125 0 L -0.0117188 2.34375 L 2.261719 75.566406 L 77.726562 73.222656 Z M 75.453125 0 " clip-rule="nonzero"/></clipPath><clipPath id="d9dc52bce4"><path d="M 15 8 L 43 8 L 43 17 L 15 17 Z M 15 8 " clip-rule="nonzero"/></clipPath><clipPath id="4e61f014bb"><path d="M 0.128906 2.339844 L 75.59375 -0.00390625 L 77.867188 73.21875 L 2.402344 75.5625 Z M 0.128906 2.339844 " clip-rule="nonzero"/></clipPath><clipPath id="228665573b"><path d="M 75.453125 0 L -0.0117188 2.34375 L 2.261719 75.566406 L 77.726562 73.222656 Z M 75.453125 0 " clip-rule="nonzero"/></clipPath><clipPath id="2fe37a7fdc"><path d="M 67 63 L 77.871094 63 L 77.871094 73 L 67 73 Z M 67 63 " clip-rule="nonzero"/></clipPath><clipPath id="3daecbae45"><path d="M 0.128906 2.339844 L 75.59375 -0.00390625 L 77.867188 73.21875 L 2.402344 75.5625 Z M 0.128906 2.339844 " clip-rule="nonzero"/></clipPath><clipPath id="d8082c2bda"><path d="M 75.453125 0 L -0.0117188 2.34375 L 2.261719 75.566406 L 77.726562 73.222656 Z M 75.453125 0 " clip-rule="nonzero"/></clipPath><clipPath id="df091f81d5"><path d="M 3 1 L 73 1 L 73 69 L 3 69 Z M 3 1 " clip-rule="nonzero"/></clipPath><clipPath id="8f5247f578"><path d="M 0.128906 2.339844 L 75.59375 -0.00390625 L 77.867188 73.21875 L 2.402344 75.5625 Z M 0.128906 2.339844 " clip-rule="nonzero"/></clipPath><clipPath id="738d8d0970"><path d="M 75.453125 0 L -0.0117188 2.34375 L 2.261719 75.566406 L 77.726562 73.222656 Z M 75.453125 0 " clip-rule="nonzero"/></clipPath><clipPath id="aa723da7ea"><path d="M 15 8 L 43 8 L 43 17 L 15 17 Z M 15 8 " clip-rule="nonzero"/></clipPath><clipPath id="ab4e366911"><path d="M 0.128906 2.339844 L 75.59375 -0.00390625 L 77.867188 73.21875 L 2.402344 75.5625 Z M 0.128906 2.339844 " clip-rule="nonzero"/></clipPath><clipPath id="0375a68ef0"><path d="M 75.453125 0 L -0.0117188 2.34375 L 2.261719 75.566406 L 77.726562 73.222656 Z M 75.453125 0 " clip-rule="nonzero"/></clipPath><clipPath id="08a87904b0"><path d="M 67 63 L 77.871094 63 L 77.871094 73 L 67 73 Z M 67 63 " clip-rule="nonzero"/></clipPath><clipPath id="1c0b1f90e6"><path d="M 0.128906 2.339844 L 75.59375 -0.00390625 L 77.867188 73.21875 L 2.402344 75.5625 Z M 0.128906 2.339844 " clip-rule="nonzero"/></clipPath><clipPath id="27cdf5e57f"><path d="M 75.453125 0 L -0.0117188 2.34375 L 2.261719 75.566406 L 77.726562 73.222656 Z M 75.453125 0 " clip-rule="nonzero"/></clipPath></defs><g clip-path="url(#8757073d99)"><g clip-path="url(#65eaf63660)"><g clip-path="url(#91111d2653)"><path fill="#7f3c8a" d="M 10.476562 9.714844 C 15.238281 4.644531 21.691406 1.742188 28.636719 1.523438 C 35.589844 1.308594 42.210938 3.808594 47.28125 8.574219 C 52.351562 13.335938 55.261719 19.789062 55.476562 26.742188 C 55.664062 32.785156 53.789062 38.574219 50.167969 43.320312 L 55.347656 48.1875 L 56.457031 47.007812 L 72.171875 61.769531 L 66.261719 68.058594 L 50.550781 53.296875 L 51.65625 52.117188 L 46.476562 47.25 C 41.96875 51.160156 36.304688 53.386719 30.261719 53.574219 C 23.308594 53.792969 16.6875 51.285156 11.617188 46.523438 C 1.152344 36.6875 0.640625 20.179688 10.476562 9.714844 Z M 14.339844 43.621094 C 18.636719 47.65625 24.242188 49.777344 30.136719 49.59375 C 36.027344 49.410156 41.492188 46.945312 45.527344 42.652344 C 49.5625 38.359375 51.683594 32.753906 51.5 26.863281 C 51.316406 20.972656 48.851562 15.503906 44.558594 11.472656 C 40.265625 7.433594 34.660156 5.316406 28.765625 5.5 C 22.875 5.683594 17.414062 8.148438 13.375 12.441406 C 5.046875 21.308594 5.480469 35.296875 14.339844 43.621094 Z M 14.339844 43.621094 " fill-opacity="1" fill-rule="nonzero"/></g></g></g><g clip-path="url(#d9dc52bce4)"><g clip-path="url(#4e61f014bb)"><g clip-path="url(#228665573b)"><path fill="#7f3c8a" d="M 28.859375 8.464844 C 33.957031 8.304688 38.808594 10.144531 42.523438 13.632812 C 43.085938 14.160156 43.113281 15.046875 42.585938 15.605469 C 42.058594 16.164062 41.175781 16.191406 40.617188 15.667969 C 37.441406 12.683594 33.296875 11.117188 28.945312 11.253906 C 24.589844 11.386719 20.550781 13.207031 17.566406 16.382812 C 17.304688 16.664062 16.953125 16.808594 16.59375 16.820312 C 16.238281 16.832031 15.878906 16.707031 15.59375 16.441406 C 15.035156 15.917969 15.007812 15.03125 15.53125 14.472656 C 19.027344 10.761719 23.761719 8.621094 28.859375 8.464844 Z M 28.859375 8.464844 " fill-opacity="1" fill-rule="nonzero"/></g></g></g><g clip-path="url(#2fe37a7fdc)"><g clip-path="url(#3daecbae45)"><g clip-path="url(#d8082c2bda)"><path fill="#7f3c8a" d="M 75.855469 65.238281 C 77.460938 66.742188 77.539062 69.261719 76.03125 70.859375 L 75.574219 71.351562 C 74.066406 72.953125 71.546875 73.03125 69.945312 71.527344 L 67.785156 69.496094 L 73.699219 63.207031 Z M 75.855469 65.238281 " fill-opacity="1" fill-rule="nonzero"/></g></g></g><g clip-path="url(#df091f81d5)"><g clip-path="url(#8f5247f578)"><g clip-path="url(#738d8d0970)"><path fill="#7f3c8a" d="M 10.476562 9.714844 C 15.238281 4.644531 21.691406 1.742188 28.636719 1.523438 C 35.589844 1.308594 42.210938 3.808594 47.28125 8.574219 C 52.351562 13.335938 55.261719 19.789062 55.476562 26.742188 C 55.664062 32.785156 53.789062 38.574219 50.167969 43.320312 L 55.347656 48.1875 L 56.457031 47.007812 L 72.171875 61.769531 L 66.261719 68.058594 L 50.550781 53.296875 L 51.65625 52.117188 L 46.476562 47.25 C 41.96875 51.160156 36.304688 53.386719 30.261719 53.574219 C 23.308594 53.792969 16.6875 51.285156 11.617188 46.523438 C 1.152344 36.6875 0.640625 20.179688 10.476562 9.714844 Z M 14.339844 43.621094 C 18.636719 47.65625 24.242188 49.777344 30.136719 49.59375 C 36.027344 49.410156 41.492188 46.945312 45.527344 42.652344 C 49.5625 38.359375 51.683594 32.753906 51.5 26.863281 C 51.316406 20.972656 48.851562 15.503906 44.558594 11.472656 C 40.265625 7.433594 34.660156 5.316406 28.765625 5.5 C 22.875 5.683594 17.414062 8.148438 13.375 12.441406 C 5.046875 21.308594 5.480469 35.296875 14.339844 43.621094 Z M 14.339844 43.621094 " fill-opacity="1" fill-rule="nonzero"/></g></g></g><g clip-path="url(#aa723da7ea)"><g clip-path="url(#ab4e366911)"><g clip-path="url(#0375a68ef0)"><path fill="#7f3c8a" d="M 28.859375 8.464844 C 33.957031 8.304688 38.808594 10.144531 42.523438 13.632812 C 43.085938 14.160156 43.113281 15.046875 42.585938 15.605469 C 42.058594 16.164062 41.175781 16.191406 40.617188 15.667969 C 37.441406 12.683594 33.296875 11.117188 28.945312 11.253906 C 24.589844 11.386719 20.550781 13.207031 17.566406 16.382812 C 17.304688 16.664062 16.953125 16.808594 16.59375 16.820312 C 16.238281 16.832031 15.878906 16.707031 15.59375 16.441406 C 15.035156 15.917969 15.007812 15.03125 15.53125 14.472656 C 19.027344 10.761719 23.761719 8.621094 28.859375 8.464844 Z M 28.859375 8.464844 " fill-opacity="1" fill-rule="nonzero"/></g></g></g><g clip-path="url(#08a87904b0)"><g clip-path="url(#1c0b1f90e6)"><g clip-path="url(#27cdf5e57f)"><path fill="#7f3c8a" d="M 75.855469 65.238281 C 77.460938 66.742188 77.539062 69.261719 76.03125 70.859375 L 75.574219 71.351562 C 74.066406 72.953125 71.546875 73.03125 69.945312 71.527344 L 67.785156 69.496094 L 73.699219 63.207031 Z M 75.855469 65.238281 " fill-opacity="1" fill-rule="nonzero"/></g></g></g></svg>