<svg xmlns="http://www.w3.org/2000/svg" xmlns:xlink="http://www.w3.org/1999/xlink" width="50" zoomAndPan="magnify" viewBox="0 0 37.5 38.249999" height="51" preserveAspectRatio="xMidYMid meet" version="1.0"><defs><clipPath id="1953ef12bd"><path d="M 0.117188 0 L 36.894531 0 L 36.894531 36.777344 L 0.117188 36.777344 Z M 0.117188 0 " clip-rule="nonzero"/></clipPath><clipPath id="64081d1a26"><path d="M 0.117188 0.308594 L 36.894531 0.308594 L 36.894531 37 L 0.117188 37 Z M 0.117188 0.308594 " clip-rule="nonzero"/></clipPath></defs><g clip-path="url(#1953ef12bd)"><path fill="#f8f3f8" d="M 18.320312 0.0351562 C 8.203125 0.0664062 0.117188 8.292969 0.25 18.410156 C 0.273438 20.460938 0.636719 22.449219 1.339844 24.375 C 2.042969 26.304688 3.042969 28.0625 4.34375 29.648438 C 4.550781 29.902344 4.671875 30.195312 4.699219 30.523438 C 4.726562 30.851562 4.664062 31.160156 4.5 31.445312 L 2.9375 34.246094 C 2.507812 35.023438 3.210938 35.941406 4.074219 35.71875 L 9.363281 34.375 C 9.746094 34.277344 10.113281 34.3125 10.464844 34.484375 C 12.832031 35.636719 15.332031 36.238281 17.964844 36.296875 C 28.136719 36.527344 36.484375 28.398438 36.515625 18.226562 C 36.546875 8.164062 28.382812 0 18.320312 0.0351562 Z M 18.382812 34.066406 C 17.863281 34.066406 17.34375 34.039062 16.824219 33.988281 C 16.304688 33.9375 15.789062 33.863281 15.28125 33.761719 C 14.769531 33.660156 14.265625 33.53125 13.765625 33.382812 C 13.269531 33.230469 12.777344 33.054688 12.296875 32.855469 C 11.816406 32.65625 11.347656 32.433594 10.886719 32.1875 C 10.429688 31.945312 9.980469 31.675781 9.550781 31.386719 C 9.117188 31.097656 8.699219 30.789062 8.296875 30.457031 C 7.894531 30.128906 7.507812 29.777344 7.140625 29.410156 C 6.769531 29.042969 6.421875 28.65625 6.089844 28.253906 C 5.761719 27.851562 5.453125 27.433594 5.164062 27 C 4.871094 26.566406 4.605469 26.121094 4.359375 25.660156 C 4.113281 25.203125 3.890625 24.734375 3.691406 24.25 C 3.492188 23.769531 3.320312 23.28125 3.167969 22.78125 C 3.015625 22.285156 2.890625 21.78125 2.789062 21.269531 C 2.6875 20.757812 2.609375 20.242188 2.558594 19.726562 C 2.507812 19.207031 2.484375 18.6875 2.484375 18.167969 C 2.484375 9.386719 9.601562 2.269531 18.382812 2.269531 C 27.128906 2.269531 34.226562 9.332031 34.28125 18.066406 C 34.335938 26.828125 27.144531 34.066406 18.382812 34.066406 Z M 18.382812 34.066406 " fill-opacity="1" fill-rule="nonzero"/></g><path fill="#f8f3f8" d="M 15.539062 10.4375 L 15.546875 10.453125 L 16.496094 12.332031 C 16.707031 12.75 16.769531 13.191406 16.6875 13.652344 C 16.605469 14.113281 16.394531 14.503906 16.050781 14.820312 C 15.710938 15.140625 15.496094 15.527344 15.414062 15.984375 C 15.328125 16.441406 15.390625 16.878906 15.597656 17.296875 C 16.167969 18.441406 17.152344 20.015625 18.65625 21.152344 C 19.003906 21.414062 19.390625 21.558594 19.824219 21.578125 C 20.257812 21.601562 20.660156 21.5 21.03125 21.277344 L 21.640625 20.90625 C 22.226562 20.546875 22.839844 20.492188 23.484375 20.734375 L 25.910156 21.65625 C 26.171875 21.757812 26.402344 21.902344 26.605469 22.09375 C 26.808594 22.285156 26.96875 22.507812 27.082031 22.761719 C 27.199219 23.019531 27.257812 23.285156 27.265625 23.566406 C 27.273438 23.84375 27.230469 24.113281 27.128906 24.375 C 27.101562 24.449219 27.070312 24.519531 27.035156 24.589844 L 26.359375 25.894531 C 26.25 26.109375 26.109375 26.296875 25.9375 26.460938 C 25.761719 26.625 25.566406 26.753906 25.347656 26.851562 C 25.128906 26.949219 24.902344 27.007812 24.664062 27.027344 C 24.425781 27.046875 24.191406 27.027344 23.957031 26.96875 C 20.144531 25.980469 11.058594 22.554688 10.328125 12.1875 C 10.296875 11.765625 10.386719 11.371094 10.59375 11.003906 C 10.800781 10.636719 11.089844 10.355469 11.464844 10.164062 L 12.703125 9.527344 C 12.953125 9.398438 13.214844 9.324219 13.496094 9.300781 C 13.773438 9.277344 14.042969 9.308594 14.3125 9.394531 C 14.578125 9.480469 14.816406 9.613281 15.027344 9.792969 C 15.242188 9.972656 15.414062 10.1875 15.539062 10.4375 Z M 15.539062 10.4375 " fill-opacity="1" fill-rule="nonzero"/><g clip-path="url(#64081d1a26)"><path fill="#f8f3f8" d="M 18.320312 0.339844 C 8.203125 0.375 0.117188 8.601562 0.25 18.714844 C 0.273438 20.765625 0.636719 22.757812 1.339844 24.683594 C 2.042969 26.613281 3.042969 28.367188 4.34375 29.953125 C 4.550781 30.210938 4.671875 30.5 4.699219 30.828125 C 4.726562 31.15625 4.664062 31.464844 4.5 31.753906 L 2.9375 34.554688 C 2.507812 35.328125 3.210938 36.246094 4.074219 36.027344 L 9.363281 34.679688 C 9.746094 34.582031 10.113281 34.621094 10.464844 34.792969 C 12.832031 35.945312 15.332031 36.546875 17.964844 36.601562 C 28.136719 36.832031 36.484375 28.707031 36.515625 18.53125 C 36.546875 8.46875 28.382812 0.304688 18.320312 0.339844 Z M 18.382812 34.375 C 17.863281 34.375 17.34375 34.347656 16.824219 34.296875 C 16.304688 34.246094 15.789062 34.167969 15.28125 34.066406 C 14.769531 33.964844 14.265625 33.839844 13.765625 33.6875 C 13.269531 33.539062 12.777344 33.363281 12.296875 33.164062 C 11.816406 32.964844 11.347656 32.742188 10.886719 32.496094 C 10.429688 32.25 9.980469 31.984375 9.550781 31.695312 C 9.117188 31.40625 8.699219 31.09375 8.296875 30.765625 C 7.894531 30.433594 7.507812 30.085938 7.140625 29.71875 C 6.769531 29.347656 6.421875 28.964844 6.089844 28.5625 C 5.761719 28.160156 5.453125 27.742188 5.164062 27.308594 C 4.871094 26.875 4.605469 26.429688 4.359375 25.96875 C 4.113281 25.511719 3.890625 25.039062 3.691406 24.558594 C 3.492188 24.078125 3.320312 23.589844 3.167969 23.089844 C 3.015625 22.589844 2.890625 22.085938 2.789062 21.574219 C 2.6875 21.066406 2.609375 20.550781 2.558594 20.03125 C 2.507812 19.515625 2.484375 18.996094 2.484375 18.472656 C 2.484375 9.695312 9.601562 2.574219 18.382812 2.574219 C 27.128906 2.574219 34.226562 9.636719 34.28125 18.371094 C 34.335938 27.136719 27.144531 34.375 18.382812 34.375 Z M 18.382812 34.375 " fill-opacity="1" fill-rule="nonzero"/></g><path fill="#f8f3f8" d="M 15.539062 10.746094 L 15.546875 10.757812 L 16.496094 12.640625 C 16.707031 13.058594 16.769531 13.496094 16.6875 13.957031 C 16.605469 14.421875 16.394531 14.808594 16.050781 15.128906 C 15.710938 15.445312 15.496094 15.832031 15.414062 16.292969 C 15.328125 16.75 15.390625 17.1875 15.597656 17.605469 C 16.167969 18.746094 17.152344 20.324219 18.65625 21.460938 C 19.003906 21.722656 19.390625 21.863281 19.824219 21.886719 C 20.257812 21.910156 20.660156 21.808594 21.03125 21.582031 L 21.640625 21.210938 C 22.226562 20.855469 22.839844 20.796875 23.484375 21.042969 L 25.910156 21.964844 C 26.171875 22.0625 26.402344 22.210938 26.605469 22.402344 C 26.808594 22.59375 26.96875 22.816406 27.082031 23.070312 C 27.199219 23.324219 27.257812 23.59375 27.265625 23.871094 C 27.273438 24.152344 27.230469 24.421875 27.128906 24.683594 C 27.101562 24.757812 27.070312 24.828125 27.035156 24.898438 L 26.359375 26.203125 C 26.25 26.414062 26.109375 26.601562 25.9375 26.769531 C 25.761719 26.933594 25.566406 27.0625 25.347656 27.160156 C 25.128906 27.257812 24.902344 27.316406 24.664062 27.335938 C 24.425781 27.355469 24.191406 27.335938 23.957031 27.273438 C 20.144531 26.289062 11.058594 22.859375 10.328125 12.492188 C 10.296875 12.074219 10.386719 11.679688 10.59375 11.3125 C 10.800781 10.945312 11.089844 10.664062 11.464844 10.46875 L 12.703125 9.835938 C 12.953125 9.707031 13.214844 9.632812 13.496094 9.609375 C 13.773438 9.585938 14.042969 9.617188 14.3125 9.703125 C 14.578125 9.789062 14.816406 9.921875 15.027344 10.101562 C 15.242188 10.28125 15.414062 10.496094 15.539062 10.746094 Z M 15.539062 10.746094 " fill-opacity="1" fill-rule="nonzero"/></svg>